; NON-PLATED HOLES START AT T1
; THROUGH (PLATED) HOLES START AT T100
M48
INCH
T1C0.161417
T2C0.216536
T100C0.035433
T101C0.038000
T102C0.035000
T103C0.015748
%
T1
X014925Y005708
X006206Y005708
T2
X014815Y014006
T100
X011005Y003707
X013005Y014707
X001005Y013707
X009005Y005707
X018005Y004707
X001005Y006707
X007005Y003707
X011005Y005707
X012005Y014707
X017005Y004707
X015005Y016707
X009005Y002707
X001005Y001707
X008005Y013707
X008005Y003707
X013005Y005707
X001005Y008707
X002005Y014707
X010005Y002707
X012005Y005707
X011005Y004707
X002005Y013707
X013005Y004707
X017005Y011707
X001005Y010707
X007005Y016707
X012005Y016707
X014005Y002707
X014005Y016707
X010005Y005707
X002005Y010707
X001005Y016707
X006005Y016707
X017005Y010707
X008005Y004707
X002005Y002707
X002005Y003707
X003005Y008707
X010005Y013707
X006005Y002707
X018005Y006707
X011005Y016707
X001005Y015707
X015005Y002707
X011005Y002707
X012005Y002707
X012005Y004707
X014005Y004707
X003005Y005707
X001005Y005707
X016005Y003707
X002005Y004707
X015005Y003707
X002005Y009707
X013005Y003707
X010005Y003707
X006005Y003707
X018005Y009707
X001005Y011707
X002005Y008707
X001005Y007707
X018005Y012707
X002005Y006707
X001005Y002707
X009005Y013707
X002005Y016707
X008005Y016707
X004005Y016707
X014005Y003707
X003005Y001707
X009005Y004707
X011005Y013707
X001005Y014707
X008005Y005707
X018005Y011707
X017005Y008707
X009005Y016707
X010005Y016707
X002005Y015707
X013005Y016707
X001005Y009707
X017005Y013707
X017005Y005707
X017005Y006707
X001005Y012707
X007005Y002707
X011005Y014707
X018005Y010707
X002005Y011707
X018005Y008707
X016005Y002707
X005005Y016707
X018005Y007707
X017005Y012707
X001005Y003707
X013005Y002707
X008005Y002707
X012005Y003707
X003005Y009707
X002005Y007707
X009005Y003707
X010005Y014707
X002005Y001707
X002005Y005707
X018005Y005707
X002005Y012707
X003005Y004707
X003005Y012707
X018005Y013707
X001005Y004707
X009005Y014707
X007005Y004707
X017005Y009707
X003005Y013707
X017005Y007707
X010005Y004707
X003005Y016707
T101
X003005Y014707
X003005Y003707
X003005Y011707
X003005Y015707
X003005Y007707
X003005Y006707
X003005Y002707
X003005Y010707
T102
X012005Y008707
X012005Y010707
X012005Y009707
X008005Y010707
X008005Y009707
X008005Y007707
X008005Y008707
X012005Y007707
T103
X004005Y013707
X004005Y009707
X008005Y012707
X005005Y001707
X007005Y014707
X006005Y012707
X015005Y015707
X004005Y005707
X013005Y001707
X006005Y007707
X007005Y001707
T00
M30
