G04 MADE WITH FRITZING*
G04 WWW.FRITZING.ORG*
G04 DOUBLE SIDED*
G04 HOLES PLATED*
G04 CONTOUR ON CENTER OF CONTOUR VECTOR*
%ASAXBY*%
%FSLAX23Y23*%
%MOIN*%
%OFA0B0*%
%SFA1.0B1.0*%
%ADD10C,0.085000*%
%ADD11C,0.072992*%
%ADD12C,0.049370*%
%ADD13C,0.084000*%
%ADD14C,0.092000*%
%ADD15C,0.084803*%
%ADD16R,0.072992X0.072992*%
%ADD17R,0.092000X0.092000*%
%ADD18R,0.001000X0.001000*%
%LNMASK1*%
G90*
G70*
G54D10*
X1298Y752D03*
X1398Y752D03*
X1298Y2552D03*
X1398Y2552D03*
X1298Y1652D03*
X1398Y1652D03*
X1898Y1652D03*
X1998Y1652D03*
X1898Y752D03*
X1998Y752D03*
X1898Y2552D03*
X1998Y2552D03*
X698Y2552D03*
X798Y2552D03*
X698Y752D03*
X798Y752D03*
X698Y1652D03*
X798Y1652D03*
X1998Y2152D03*
X1998Y2052D03*
X1998Y1252D03*
X1998Y1152D03*
X1998Y352D03*
X1998Y252D03*
X798Y2152D03*
X798Y2052D03*
X798Y1252D03*
X798Y1152D03*
X798Y352D03*
X798Y252D03*
X1398Y2152D03*
X1398Y2052D03*
X1398Y1252D03*
X1398Y1152D03*
X1398Y352D03*
X1398Y252D03*
G54D11*
X2996Y2651D03*
X2898Y2651D03*
X2996Y2051D03*
X2898Y2051D03*
X2996Y2351D03*
X2898Y2351D03*
X2898Y2849D03*
X2898Y2751D03*
X2996Y2151D03*
X2898Y2151D03*
X2996Y2451D03*
X2898Y2451D03*
X2996Y2551D03*
X2898Y2551D03*
X2996Y2251D03*
X2898Y2251D03*
X2996Y1951D03*
X2898Y1951D03*
G54D12*
X198Y2152D03*
G54D13*
X198Y2152D03*
X208Y2052D03*
X198Y1952D03*
X198Y2152D03*
X208Y2052D03*
X198Y1952D03*
X198Y2152D03*
X208Y2052D03*
X198Y1952D03*
X198Y1552D03*
X208Y1452D03*
X198Y1352D03*
X198Y1552D03*
X208Y1452D03*
X198Y1352D03*
X198Y1552D03*
X208Y1452D03*
X198Y1352D03*
X198Y1252D03*
X198Y1252D03*
X198Y1252D03*
X198Y1852D03*
X208Y1752D03*
X198Y1652D03*
X198Y1852D03*
X208Y1752D03*
X198Y1652D03*
X198Y1852D03*
X208Y1752D03*
X198Y1652D03*
X198Y2952D03*
X198Y2842D03*
X198Y2952D03*
X198Y2842D03*
X198Y2952D03*
X198Y2842D03*
G54D14*
X998Y2252D03*
X1098Y2252D03*
X1198Y2252D03*
X998Y1352D03*
X1098Y1352D03*
X1198Y1352D03*
X998Y452D03*
X1098Y452D03*
X1198Y452D03*
G54D12*
X798Y2252D03*
X898Y1952D03*
G54D14*
X2198Y2252D03*
X2298Y2252D03*
X2398Y2252D03*
X2198Y452D03*
X2298Y452D03*
X2398Y452D03*
X2198Y1352D03*
X2298Y1352D03*
X2398Y1352D03*
X1598Y2252D03*
X1698Y2252D03*
X1798Y2252D03*
X1598Y1352D03*
X1698Y1352D03*
X1798Y1352D03*
X1598Y452D03*
X1698Y452D03*
X1798Y452D03*
G54D12*
X498Y2752D03*
X698Y2852D03*
X1398Y2252D03*
X1498Y1952D03*
X1998Y2252D03*
X2098Y1952D03*
X798Y1352D03*
X498Y1652D03*
X598Y1852D03*
X1398Y1352D03*
X1998Y1352D03*
X898Y1052D03*
X1498Y1052D03*
X2098Y1052D03*
X698Y1152D03*
X498Y1352D03*
X798Y452D03*
X1398Y452D03*
X1998Y452D03*
X2098Y152D03*
X1498Y152D03*
X898Y152D03*
X798Y952D03*
G54D15*
X2698Y252D03*
X2598Y252D03*
X2598Y352D03*
X2598Y152D03*
X2698Y152D03*
X2698Y352D03*
X2598Y452D03*
X2698Y452D03*
X2798Y252D03*
X2798Y152D03*
X2898Y152D03*
X2998Y152D03*
X2898Y252D03*
X2998Y252D03*
X2798Y352D03*
X2898Y352D03*
X2998Y352D03*
X2798Y452D03*
X2898Y452D03*
X2998Y452D03*
X2698Y652D03*
X2698Y552D03*
X2698Y752D03*
X2698Y852D03*
X2798Y652D03*
X2798Y552D03*
X2898Y552D03*
X2998Y552D03*
X2898Y652D03*
X2998Y652D03*
X2798Y752D03*
X2898Y752D03*
X2998Y752D03*
X2798Y852D03*
X2898Y852D03*
X2998Y852D03*
X2798Y952D03*
X2798Y1352D03*
X2798Y1252D03*
X2898Y1252D03*
X2998Y1252D03*
X2898Y952D03*
X2898Y1352D03*
X2998Y952D03*
X2998Y1352D03*
X2798Y1052D03*
X2798Y1452D03*
X2898Y1052D03*
X2898Y1452D03*
X2998Y1052D03*
X2998Y1452D03*
X2798Y1152D03*
X2898Y1152D03*
X2898Y1552D03*
X2998Y1152D03*
X2998Y1552D03*
X2998Y2952D03*
X2898Y3052D03*
X2998Y3052D03*
X198Y252D03*
X198Y652D03*
X198Y152D03*
X198Y552D03*
X298Y152D03*
X298Y552D03*
X398Y152D03*
X398Y552D03*
X298Y252D03*
X298Y652D03*
X398Y252D03*
X398Y652D03*
X198Y352D03*
X198Y752D03*
X298Y352D03*
X298Y752D03*
X398Y352D03*
X398Y752D03*
X198Y452D03*
X298Y452D03*
X398Y452D03*
X198Y952D03*
X198Y852D03*
X298Y852D03*
X298Y952D03*
X198Y1052D03*
X298Y1052D03*
X498Y152D03*
X498Y552D03*
X498Y252D03*
X498Y352D03*
X498Y452D03*
X2598Y552D03*
X2598Y652D03*
X2598Y752D03*
G54D16*
X2996Y2651D03*
X2996Y2051D03*
X2996Y2351D03*
X2898Y2849D03*
X2996Y2151D03*
X2996Y2451D03*
X2996Y2551D03*
X2996Y2251D03*
X2996Y1951D03*
G54D17*
X998Y2252D03*
X998Y1352D03*
X998Y452D03*
X2198Y2252D03*
X2198Y452D03*
X2198Y1352D03*
X1598Y2252D03*
X1598Y1352D03*
X1598Y452D03*
G54D18*
X156Y2994D02*
X239Y2994D01*
X156Y2993D02*
X239Y2993D01*
X156Y2992D02*
X239Y2992D01*
X156Y2991D02*
X239Y2991D01*
X156Y2990D02*
X239Y2990D01*
X156Y2989D02*
X239Y2989D01*
X156Y2988D02*
X239Y2988D01*
X156Y2987D02*
X239Y2987D01*
X156Y2986D02*
X239Y2986D01*
X156Y2985D02*
X239Y2985D01*
X156Y2984D02*
X239Y2984D01*
X156Y2983D02*
X239Y2983D01*
X156Y2982D02*
X239Y2982D01*
X156Y2981D02*
X239Y2981D01*
X156Y2980D02*
X239Y2980D01*
X156Y2979D02*
X239Y2979D01*
X156Y2978D02*
X239Y2978D01*
X156Y2977D02*
X239Y2977D01*
X156Y2976D02*
X239Y2976D01*
X156Y2975D02*
X239Y2975D01*
X156Y2974D02*
X239Y2974D01*
X156Y2973D02*
X239Y2973D01*
X156Y2972D02*
X239Y2972D01*
X156Y2971D02*
X239Y2971D01*
X156Y2970D02*
X239Y2970D01*
X156Y2969D02*
X239Y2969D01*
X156Y2968D02*
X239Y2968D01*
X156Y2967D02*
X193Y2967D01*
X202Y2967D02*
X239Y2967D01*
X156Y2966D02*
X191Y2966D01*
X205Y2966D02*
X239Y2966D01*
X156Y2965D02*
X189Y2965D01*
X207Y2965D02*
X239Y2965D01*
X156Y2964D02*
X188Y2964D01*
X208Y2964D02*
X239Y2964D01*
X156Y2963D02*
X187Y2963D01*
X209Y2963D02*
X239Y2963D01*
X156Y2962D02*
X186Y2962D01*
X210Y2962D02*
X239Y2962D01*
X156Y2961D02*
X185Y2961D01*
X211Y2961D02*
X239Y2961D01*
X156Y2960D02*
X184Y2960D01*
X211Y2960D02*
X239Y2960D01*
X156Y2959D02*
X184Y2959D01*
X212Y2959D02*
X239Y2959D01*
X156Y2958D02*
X183Y2958D01*
X212Y2958D02*
X239Y2958D01*
X156Y2957D02*
X183Y2957D01*
X213Y2957D02*
X239Y2957D01*
X156Y2956D02*
X183Y2956D01*
X213Y2956D02*
X239Y2956D01*
X156Y2955D02*
X183Y2955D01*
X213Y2955D02*
X239Y2955D01*
X156Y2954D02*
X183Y2954D01*
X213Y2954D02*
X239Y2954D01*
X156Y2953D02*
X182Y2953D01*
X213Y2953D02*
X239Y2953D01*
X156Y2952D02*
X182Y2952D01*
X213Y2952D02*
X239Y2952D01*
X156Y2951D02*
X183Y2951D01*
X213Y2951D02*
X239Y2951D01*
X156Y2950D02*
X183Y2950D01*
X213Y2950D02*
X239Y2950D01*
X156Y2949D02*
X183Y2949D01*
X213Y2949D02*
X239Y2949D01*
X156Y2948D02*
X183Y2948D01*
X213Y2948D02*
X239Y2948D01*
X156Y2947D02*
X183Y2947D01*
X212Y2947D02*
X239Y2947D01*
X156Y2946D02*
X184Y2946D01*
X212Y2946D02*
X239Y2946D01*
X156Y2945D02*
X184Y2945D01*
X211Y2945D02*
X239Y2945D01*
X156Y2944D02*
X185Y2944D01*
X211Y2944D02*
X239Y2944D01*
X156Y2943D02*
X186Y2943D01*
X210Y2943D02*
X239Y2943D01*
X156Y2942D02*
X187Y2942D01*
X209Y2942D02*
X239Y2942D01*
X156Y2941D02*
X188Y2941D01*
X208Y2941D02*
X239Y2941D01*
X156Y2940D02*
X189Y2940D01*
X207Y2940D02*
X239Y2940D01*
X156Y2939D02*
X191Y2939D01*
X205Y2939D02*
X239Y2939D01*
X156Y2938D02*
X194Y2938D01*
X202Y2938D02*
X239Y2938D01*
X156Y2937D02*
X239Y2937D01*
X156Y2936D02*
X239Y2936D01*
X156Y2935D02*
X239Y2935D01*
X156Y2934D02*
X239Y2934D01*
X156Y2933D02*
X239Y2933D01*
X156Y2932D02*
X239Y2932D01*
X156Y2931D02*
X239Y2931D01*
X156Y2930D02*
X239Y2930D01*
X156Y2929D02*
X239Y2929D01*
X156Y2928D02*
X239Y2928D01*
X156Y2927D02*
X239Y2927D01*
X156Y2926D02*
X239Y2926D01*
X156Y2925D02*
X239Y2925D01*
X156Y2924D02*
X239Y2924D01*
X156Y2923D02*
X239Y2923D01*
X156Y2922D02*
X239Y2922D01*
X156Y2921D02*
X239Y2921D01*
X156Y2920D02*
X239Y2920D01*
X156Y2919D02*
X239Y2919D01*
X156Y2918D02*
X239Y2918D01*
X156Y2917D02*
X239Y2917D01*
X156Y2916D02*
X239Y2916D01*
X156Y2915D02*
X239Y2915D01*
X156Y2914D02*
X239Y2914D01*
X156Y2913D02*
X239Y2913D01*
X156Y2912D02*
X239Y2912D01*
X156Y2911D02*
X239Y2911D01*
X156Y2194D02*
X239Y2194D01*
X156Y2193D02*
X239Y2193D01*
X156Y2192D02*
X239Y2192D01*
X156Y2191D02*
X239Y2191D01*
X156Y2190D02*
X239Y2190D01*
X156Y2189D02*
X239Y2189D01*
X156Y2188D02*
X239Y2188D01*
X156Y2187D02*
X239Y2187D01*
X156Y2186D02*
X239Y2186D01*
X156Y2185D02*
X239Y2185D01*
X156Y2184D02*
X239Y2184D01*
X156Y2183D02*
X239Y2183D01*
X156Y2182D02*
X239Y2182D01*
X156Y2181D02*
X239Y2181D01*
X156Y2180D02*
X239Y2180D01*
X156Y2179D02*
X239Y2179D01*
X156Y2178D02*
X239Y2178D01*
X156Y2177D02*
X239Y2177D01*
X156Y2176D02*
X239Y2176D01*
X156Y2175D02*
X239Y2175D01*
X156Y2174D02*
X239Y2174D01*
X156Y2173D02*
X239Y2173D01*
X156Y2172D02*
X239Y2172D01*
X156Y2171D02*
X239Y2171D01*
X156Y2170D02*
X239Y2170D01*
X156Y2169D02*
X239Y2169D01*
X156Y2168D02*
X239Y2168D01*
X156Y2167D02*
X193Y2167D01*
X203Y2167D02*
X239Y2167D01*
X156Y2166D02*
X190Y2166D01*
X205Y2166D02*
X239Y2166D01*
X156Y2165D02*
X189Y2165D01*
X207Y2165D02*
X239Y2165D01*
X156Y2164D02*
X188Y2164D01*
X208Y2164D02*
X239Y2164D01*
X156Y2163D02*
X187Y2163D01*
X209Y2163D02*
X239Y2163D01*
X156Y2162D02*
X186Y2162D01*
X210Y2162D02*
X239Y2162D01*
X156Y2161D02*
X185Y2161D01*
X211Y2161D02*
X239Y2161D01*
X156Y2160D02*
X184Y2160D01*
X212Y2160D02*
X239Y2160D01*
X156Y2159D02*
X184Y2159D01*
X212Y2159D02*
X239Y2159D01*
X156Y2158D02*
X183Y2158D01*
X212Y2158D02*
X239Y2158D01*
X156Y2157D02*
X183Y2157D01*
X213Y2157D02*
X239Y2157D01*
X156Y2156D02*
X183Y2156D01*
X213Y2156D02*
X239Y2156D01*
X156Y2155D02*
X183Y2155D01*
X213Y2155D02*
X239Y2155D01*
X156Y2154D02*
X183Y2154D01*
X213Y2154D02*
X239Y2154D01*
X156Y2153D02*
X182Y2153D01*
X213Y2153D02*
X239Y2153D01*
X156Y2152D02*
X182Y2152D01*
X213Y2152D02*
X239Y2152D01*
X156Y2151D02*
X183Y2151D01*
X213Y2151D02*
X239Y2151D01*
X156Y2150D02*
X183Y2150D01*
X213Y2150D02*
X239Y2150D01*
X156Y2149D02*
X183Y2149D01*
X213Y2149D02*
X239Y2149D01*
X156Y2148D02*
X183Y2148D01*
X213Y2148D02*
X239Y2148D01*
X156Y2147D02*
X183Y2147D01*
X212Y2147D02*
X239Y2147D01*
X156Y2146D02*
X184Y2146D01*
X212Y2146D02*
X239Y2146D01*
X156Y2145D02*
X185Y2145D01*
X211Y2145D02*
X239Y2145D01*
X156Y2144D02*
X185Y2144D01*
X211Y2144D02*
X239Y2144D01*
X156Y2143D02*
X186Y2143D01*
X210Y2143D02*
X239Y2143D01*
X156Y2142D02*
X187Y2142D01*
X209Y2142D02*
X239Y2142D01*
X156Y2141D02*
X188Y2141D01*
X208Y2141D02*
X239Y2141D01*
X156Y2140D02*
X189Y2140D01*
X206Y2140D02*
X239Y2140D01*
X156Y2139D02*
X191Y2139D01*
X205Y2139D02*
X239Y2139D01*
X156Y2138D02*
X194Y2138D01*
X202Y2138D02*
X239Y2138D01*
X156Y2137D02*
X239Y2137D01*
X156Y2136D02*
X239Y2136D01*
X156Y2135D02*
X239Y2135D01*
X156Y2134D02*
X239Y2134D01*
X156Y2133D02*
X239Y2133D01*
X156Y2132D02*
X239Y2132D01*
X156Y2131D02*
X239Y2131D01*
X156Y2130D02*
X239Y2130D01*
X156Y2129D02*
X239Y2129D01*
X156Y2128D02*
X239Y2128D01*
X156Y2127D02*
X239Y2127D01*
X156Y2126D02*
X239Y2126D01*
X156Y2125D02*
X239Y2125D01*
X156Y2124D02*
X239Y2124D01*
X156Y2123D02*
X239Y2123D01*
X156Y2122D02*
X239Y2122D01*
X156Y2121D02*
X239Y2121D01*
X156Y2120D02*
X239Y2120D01*
X156Y2119D02*
X239Y2119D01*
X156Y2118D02*
X239Y2118D01*
X156Y2117D02*
X239Y2117D01*
X156Y2116D02*
X239Y2116D01*
X156Y2115D02*
X239Y2115D01*
X156Y2114D02*
X239Y2114D01*
X156Y2113D02*
X239Y2113D01*
X156Y2112D02*
X239Y2112D01*
X157Y2111D02*
X239Y2111D01*
X156Y1894D02*
X239Y1894D01*
X156Y1893D02*
X239Y1893D01*
X156Y1892D02*
X239Y1892D01*
X156Y1891D02*
X239Y1891D01*
X156Y1890D02*
X239Y1890D01*
X156Y1889D02*
X239Y1889D01*
X156Y1888D02*
X239Y1888D01*
X156Y1887D02*
X239Y1887D01*
X156Y1886D02*
X239Y1886D01*
X156Y1885D02*
X239Y1885D01*
X156Y1884D02*
X239Y1884D01*
X156Y1883D02*
X239Y1883D01*
X156Y1882D02*
X239Y1882D01*
X156Y1881D02*
X239Y1881D01*
X156Y1880D02*
X239Y1880D01*
X156Y1879D02*
X239Y1879D01*
X156Y1878D02*
X239Y1878D01*
X156Y1877D02*
X239Y1877D01*
X156Y1876D02*
X239Y1876D01*
X156Y1875D02*
X239Y1875D01*
X156Y1874D02*
X239Y1874D01*
X156Y1873D02*
X239Y1873D01*
X156Y1872D02*
X239Y1872D01*
X156Y1871D02*
X239Y1871D01*
X156Y1870D02*
X239Y1870D01*
X156Y1869D02*
X239Y1869D01*
X156Y1868D02*
X239Y1868D01*
X156Y1867D02*
X193Y1867D01*
X203Y1867D02*
X239Y1867D01*
X156Y1866D02*
X190Y1866D01*
X205Y1866D02*
X239Y1866D01*
X156Y1865D02*
X189Y1865D01*
X207Y1865D02*
X239Y1865D01*
X156Y1864D02*
X188Y1864D01*
X208Y1864D02*
X239Y1864D01*
X156Y1863D02*
X186Y1863D01*
X209Y1863D02*
X239Y1863D01*
X156Y1862D02*
X186Y1862D01*
X210Y1862D02*
X239Y1862D01*
X156Y1861D02*
X185Y1861D01*
X211Y1861D02*
X239Y1861D01*
X156Y1860D02*
X184Y1860D01*
X212Y1860D02*
X239Y1860D01*
X156Y1859D02*
X184Y1859D01*
X212Y1859D02*
X239Y1859D01*
X156Y1858D02*
X183Y1858D01*
X212Y1858D02*
X239Y1858D01*
X156Y1857D02*
X183Y1857D01*
X213Y1857D02*
X239Y1857D01*
X156Y1856D02*
X183Y1856D01*
X213Y1856D02*
X239Y1856D01*
X156Y1855D02*
X183Y1855D01*
X213Y1855D02*
X239Y1855D01*
X156Y1854D02*
X183Y1854D01*
X213Y1854D02*
X239Y1854D01*
X156Y1853D02*
X182Y1853D01*
X213Y1853D02*
X239Y1853D01*
X156Y1852D02*
X182Y1852D01*
X213Y1852D02*
X239Y1852D01*
X156Y1851D02*
X183Y1851D01*
X213Y1851D02*
X239Y1851D01*
X156Y1850D02*
X183Y1850D01*
X213Y1850D02*
X239Y1850D01*
X156Y1849D02*
X183Y1849D01*
X213Y1849D02*
X239Y1849D01*
X156Y1848D02*
X183Y1848D01*
X213Y1848D02*
X239Y1848D01*
X156Y1847D02*
X183Y1847D01*
X212Y1847D02*
X239Y1847D01*
X156Y1846D02*
X184Y1846D01*
X212Y1846D02*
X239Y1846D01*
X156Y1845D02*
X185Y1845D01*
X211Y1845D02*
X239Y1845D01*
X156Y1844D02*
X185Y1844D01*
X211Y1844D02*
X239Y1844D01*
X156Y1843D02*
X186Y1843D01*
X210Y1843D02*
X239Y1843D01*
X156Y1842D02*
X187Y1842D01*
X209Y1842D02*
X239Y1842D01*
X156Y1841D02*
X188Y1841D01*
X208Y1841D02*
X239Y1841D01*
X156Y1840D02*
X189Y1840D01*
X206Y1840D02*
X239Y1840D01*
X156Y1839D02*
X191Y1839D01*
X205Y1839D02*
X239Y1839D01*
X156Y1838D02*
X195Y1838D01*
X201Y1838D02*
X239Y1838D01*
X156Y1837D02*
X239Y1837D01*
X156Y1836D02*
X239Y1836D01*
X156Y1835D02*
X239Y1835D01*
X156Y1834D02*
X239Y1834D01*
X156Y1833D02*
X239Y1833D01*
X156Y1832D02*
X239Y1832D01*
X156Y1831D02*
X239Y1831D01*
X156Y1830D02*
X239Y1830D01*
X156Y1829D02*
X239Y1829D01*
X156Y1828D02*
X239Y1828D01*
X156Y1827D02*
X239Y1827D01*
X156Y1826D02*
X239Y1826D01*
X156Y1825D02*
X239Y1825D01*
X156Y1824D02*
X239Y1824D01*
X156Y1823D02*
X239Y1823D01*
X156Y1822D02*
X239Y1822D01*
X156Y1821D02*
X239Y1821D01*
X156Y1820D02*
X239Y1820D01*
X156Y1819D02*
X239Y1819D01*
X156Y1818D02*
X239Y1818D01*
X156Y1817D02*
X239Y1817D01*
X156Y1816D02*
X239Y1816D01*
X156Y1815D02*
X239Y1815D01*
X156Y1814D02*
X239Y1814D01*
X156Y1813D02*
X239Y1813D01*
X156Y1812D02*
X239Y1812D01*
X157Y1811D02*
X239Y1811D01*
X156Y1594D02*
X239Y1594D01*
X156Y1593D02*
X239Y1593D01*
X156Y1592D02*
X239Y1592D01*
X156Y1591D02*
X239Y1591D01*
X156Y1590D02*
X239Y1590D01*
X156Y1589D02*
X239Y1589D01*
X156Y1588D02*
X239Y1588D01*
X156Y1587D02*
X239Y1587D01*
X156Y1586D02*
X239Y1586D01*
X156Y1585D02*
X239Y1585D01*
X156Y1584D02*
X239Y1584D01*
X156Y1583D02*
X239Y1583D01*
X156Y1582D02*
X239Y1582D01*
X156Y1581D02*
X239Y1581D01*
X156Y1580D02*
X239Y1580D01*
X156Y1579D02*
X239Y1579D01*
X156Y1578D02*
X239Y1578D01*
X156Y1577D02*
X239Y1577D01*
X156Y1576D02*
X239Y1576D01*
X156Y1575D02*
X239Y1575D01*
X156Y1574D02*
X239Y1574D01*
X156Y1573D02*
X239Y1573D01*
X156Y1572D02*
X239Y1572D01*
X156Y1571D02*
X239Y1571D01*
X156Y1570D02*
X239Y1570D01*
X156Y1569D02*
X239Y1569D01*
X156Y1568D02*
X239Y1568D01*
X156Y1567D02*
X192Y1567D01*
X203Y1567D02*
X239Y1567D01*
X156Y1566D02*
X190Y1566D01*
X206Y1566D02*
X239Y1566D01*
X156Y1565D02*
X189Y1565D01*
X207Y1565D02*
X239Y1565D01*
X156Y1564D02*
X187Y1564D01*
X208Y1564D02*
X239Y1564D01*
X156Y1563D02*
X186Y1563D01*
X209Y1563D02*
X239Y1563D01*
X156Y1562D02*
X186Y1562D01*
X210Y1562D02*
X239Y1562D01*
X156Y1561D02*
X185Y1561D01*
X211Y1561D02*
X239Y1561D01*
X156Y1560D02*
X184Y1560D01*
X212Y1560D02*
X239Y1560D01*
X156Y1559D02*
X184Y1559D01*
X212Y1559D02*
X239Y1559D01*
X156Y1558D02*
X183Y1558D01*
X213Y1558D02*
X239Y1558D01*
X156Y1557D02*
X183Y1557D01*
X213Y1557D02*
X239Y1557D01*
X156Y1556D02*
X183Y1556D01*
X213Y1556D02*
X239Y1556D01*
X156Y1555D02*
X183Y1555D01*
X213Y1555D02*
X239Y1555D01*
X156Y1554D02*
X183Y1554D01*
X213Y1554D02*
X239Y1554D01*
X156Y1553D02*
X182Y1553D01*
X213Y1553D02*
X239Y1553D01*
X156Y1552D02*
X182Y1552D01*
X213Y1552D02*
X239Y1552D01*
X156Y1551D02*
X183Y1551D01*
X213Y1551D02*
X239Y1551D01*
X156Y1550D02*
X183Y1550D01*
X213Y1550D02*
X239Y1550D01*
X156Y1549D02*
X183Y1549D01*
X213Y1549D02*
X239Y1549D01*
X156Y1548D02*
X183Y1548D01*
X213Y1548D02*
X239Y1548D01*
X156Y1547D02*
X183Y1547D01*
X212Y1547D02*
X239Y1547D01*
X156Y1546D02*
X184Y1546D01*
X212Y1546D02*
X239Y1546D01*
X156Y1545D02*
X185Y1545D01*
X211Y1545D02*
X239Y1545D01*
X156Y1544D02*
X185Y1544D01*
X211Y1544D02*
X239Y1544D01*
X156Y1543D02*
X186Y1543D01*
X210Y1543D02*
X239Y1543D01*
X156Y1542D02*
X187Y1542D01*
X209Y1542D02*
X239Y1542D01*
X156Y1541D02*
X188Y1541D01*
X208Y1541D02*
X239Y1541D01*
X156Y1540D02*
X190Y1540D01*
X206Y1540D02*
X239Y1540D01*
X156Y1539D02*
X191Y1539D01*
X204Y1539D02*
X239Y1539D01*
X156Y1538D02*
X195Y1538D01*
X201Y1538D02*
X239Y1538D01*
X156Y1537D02*
X239Y1537D01*
X156Y1536D02*
X239Y1536D01*
X156Y1535D02*
X239Y1535D01*
X156Y1534D02*
X239Y1534D01*
X156Y1533D02*
X239Y1533D01*
X156Y1532D02*
X239Y1532D01*
X156Y1531D02*
X239Y1531D01*
X156Y1530D02*
X239Y1530D01*
X156Y1529D02*
X239Y1529D01*
X156Y1528D02*
X239Y1528D01*
X156Y1527D02*
X239Y1527D01*
X156Y1526D02*
X239Y1526D01*
X156Y1525D02*
X239Y1525D01*
X156Y1524D02*
X239Y1524D01*
X156Y1523D02*
X239Y1523D01*
X156Y1522D02*
X239Y1522D01*
X156Y1521D02*
X239Y1521D01*
X156Y1520D02*
X239Y1520D01*
X156Y1519D02*
X239Y1519D01*
X156Y1518D02*
X239Y1518D01*
X156Y1517D02*
X239Y1517D01*
X156Y1516D02*
X239Y1516D01*
X156Y1515D02*
X239Y1515D01*
X156Y1514D02*
X239Y1514D01*
X156Y1513D02*
X239Y1513D01*
X156Y1512D02*
X239Y1512D01*
X157Y1511D02*
X239Y1511D01*
X116Y1294D02*
X206Y1294D01*
X112Y1293D02*
X209Y1293D01*
X110Y1292D02*
X212Y1292D01*
X107Y1291D02*
X215Y1291D01*
X105Y1290D02*
X217Y1290D01*
X103Y1289D02*
X219Y1289D01*
X102Y1288D02*
X220Y1288D01*
X100Y1287D02*
X222Y1287D01*
X99Y1286D02*
X223Y1286D01*
X97Y1285D02*
X224Y1285D01*
X96Y1284D02*
X226Y1284D01*
X95Y1283D02*
X227Y1283D01*
X94Y1282D02*
X228Y1282D01*
X93Y1281D02*
X228Y1281D01*
X92Y1280D02*
X229Y1280D01*
X92Y1279D02*
X230Y1279D01*
X91Y1278D02*
X231Y1278D01*
X90Y1277D02*
X232Y1277D01*
X89Y1276D02*
X232Y1276D01*
X89Y1275D02*
X233Y1275D01*
X88Y1274D02*
X234Y1274D01*
X88Y1273D02*
X234Y1273D01*
X87Y1272D02*
X235Y1272D01*
X87Y1271D02*
X235Y1271D01*
X86Y1270D02*
X236Y1270D01*
X86Y1269D02*
X192Y1269D01*
X204Y1269D02*
X236Y1269D01*
X85Y1268D02*
X190Y1268D01*
X206Y1268D02*
X236Y1268D01*
X85Y1267D02*
X188Y1267D01*
X208Y1267D02*
X237Y1267D01*
X85Y1266D02*
X187Y1266D01*
X209Y1266D02*
X237Y1266D01*
X84Y1265D02*
X186Y1265D01*
X210Y1265D02*
X238Y1265D01*
X84Y1264D02*
X185Y1264D01*
X211Y1264D02*
X238Y1264D01*
X84Y1263D02*
X184Y1263D01*
X212Y1263D02*
X238Y1263D01*
X84Y1262D02*
X183Y1262D01*
X213Y1262D02*
X238Y1262D01*
X83Y1261D02*
X182Y1261D01*
X213Y1261D02*
X239Y1261D01*
X83Y1260D02*
X182Y1260D01*
X214Y1260D02*
X239Y1260D01*
X83Y1259D02*
X181Y1259D01*
X214Y1259D02*
X239Y1259D01*
X83Y1258D02*
X181Y1258D01*
X215Y1258D02*
X239Y1258D01*
X83Y1257D02*
X181Y1257D01*
X215Y1257D02*
X239Y1257D01*
X83Y1256D02*
X181Y1256D01*
X215Y1256D02*
X239Y1256D01*
X83Y1255D02*
X181Y1255D01*
X215Y1255D02*
X239Y1255D01*
X82Y1254D02*
X181Y1254D01*
X215Y1254D02*
X239Y1254D01*
X82Y1253D02*
X180Y1253D01*
X215Y1253D02*
X239Y1253D01*
X82Y1252D02*
X180Y1252D01*
X215Y1252D02*
X239Y1252D01*
X83Y1251D02*
X181Y1251D01*
X215Y1251D02*
X239Y1251D01*
X83Y1250D02*
X181Y1250D01*
X215Y1250D02*
X239Y1250D01*
X83Y1249D02*
X181Y1249D01*
X215Y1249D02*
X239Y1249D01*
X83Y1248D02*
X181Y1248D01*
X215Y1248D02*
X239Y1248D01*
X83Y1247D02*
X181Y1247D01*
X214Y1247D02*
X239Y1247D01*
X83Y1246D02*
X182Y1246D01*
X214Y1246D02*
X239Y1246D01*
X83Y1245D02*
X182Y1245D01*
X213Y1245D02*
X239Y1245D01*
X83Y1244D02*
X183Y1244D01*
X213Y1244D02*
X238Y1244D01*
X84Y1243D02*
X184Y1243D01*
X212Y1243D02*
X238Y1243D01*
X84Y1242D02*
X184Y1242D01*
X211Y1242D02*
X238Y1242D01*
X84Y1241D02*
X185Y1241D01*
X211Y1241D02*
X238Y1241D01*
X85Y1240D02*
X186Y1240D01*
X209Y1240D02*
X237Y1240D01*
X85Y1239D02*
X188Y1239D01*
X208Y1239D02*
X237Y1239D01*
X85Y1238D02*
X189Y1238D01*
X207Y1238D02*
X237Y1238D01*
X86Y1237D02*
X191Y1237D01*
X205Y1237D02*
X236Y1237D01*
X86Y1236D02*
X196Y1236D01*
X200Y1236D02*
X236Y1236D01*
X87Y1235D02*
X235Y1235D01*
X87Y1234D02*
X235Y1234D01*
X88Y1233D02*
X234Y1233D01*
X88Y1232D02*
X234Y1232D01*
X89Y1231D02*
X233Y1231D01*
X89Y1230D02*
X233Y1230D01*
X90Y1229D02*
X232Y1229D01*
X91Y1228D02*
X231Y1228D01*
X91Y1227D02*
X230Y1227D01*
X92Y1226D02*
X230Y1226D01*
X93Y1225D02*
X229Y1225D01*
X94Y1224D02*
X228Y1224D01*
X95Y1223D02*
X227Y1223D01*
X96Y1222D02*
X226Y1222D01*
X97Y1221D02*
X225Y1221D01*
X98Y1220D02*
X223Y1220D01*
X100Y1219D02*
X222Y1219D01*
X101Y1218D02*
X221Y1218D01*
X103Y1217D02*
X219Y1217D01*
X105Y1216D02*
X217Y1216D01*
X107Y1215D02*
X215Y1215D01*
X109Y1214D02*
X213Y1214D01*
X112Y1213D02*
X210Y1213D01*
X115Y1212D02*
X207Y1212D01*
X122Y1211D02*
X200Y1211D01*
D02*
G04 End of Mask1*
M02*