; NON-PLATED HOLES START AT T1
; THROUGH (PLATED) HOLES START AT T100
M48
INCH
T100C0.035000
T101C0.015748
T102C0.031497
T103C0.040000
T104C0.044000
T105C0.042000
T106C0.035433
%
T100
X013984Y016516
X007984Y007516
X007984Y011516
X007984Y020516
X013984Y012516
X013984Y021516
X013984Y025516
X012984Y025516
X013984Y003516
X007984Y002516
X007984Y016516
X006984Y007516
X007984Y012516
X013984Y011516
X019984Y002516
X019984Y021516
X019984Y025516
X012984Y016516
X019984Y012516
X007984Y025516
X019984Y016516
X012984Y007516
X006984Y025516
X018984Y016516
X019984Y007516
X013984Y007516
X019984Y020516
X007984Y021516
X006984Y016516
X018984Y025516
X013984Y020516
X019984Y003516
X019984Y011516
X013984Y002516
X018984Y007516
X007984Y003516
T101
X006984Y028516
X007984Y004516
X001984Y021516
X019984Y004516
X008984Y019516
X014984Y010516
X013984Y004516
X006984Y011516
X014984Y001516
X014984Y019516
X007984Y009516
X005984Y018516
X020984Y001516
X013984Y013516
X004984Y013516
X020984Y019516
X004984Y016516
X008984Y001516
X019984Y022516
X004984Y027516
X007984Y013516
X008984Y010516
X013984Y022516
X019984Y013516
X007984Y022516
X020984Y010516
T102
X028978Y023507
X028978Y019508
X028978Y021508
X029962Y021508
X029962Y020508
X029962Y025507
X029962Y022508
X028978Y025507
X029962Y023507
X029962Y026507
X028978Y028492
X029962Y019508
X028978Y022508
X028978Y027507
X028978Y024507
X028978Y020508
X029962Y024507
X028978Y026507
T103
X001984Y029516
X001984Y021516
X002084Y014516
X002084Y017516
X001984Y015516
X001984Y028416
X001984Y016516
X002084Y020516
X001984Y018516
X001984Y019516
X001984Y013516
T104
X001984Y012516
T105
X023984Y013516
X011984Y013516
X021984Y004516
X011984Y022516
X010984Y022516
X015984Y013516
X016984Y013516
X015984Y004516
X010984Y004516
X009984Y004516
X022984Y013516
X015984Y022516
X023984Y004516
X016984Y004516
X009984Y022516
X017984Y013516
X011984Y004516
X023984Y022516
X021984Y022516
X021984Y013516
X009984Y013516
X017984Y022516
X016984Y022516
X017984Y004516
X010984Y013516
X022984Y004516
X022984Y022516
T106
X002984Y005516
X027984Y005516
X025984Y003516
X029984Y001516
X002984Y008516
X029984Y014516
X003984Y004516
X029984Y006516
X026984Y006516
X001984Y004516
X029984Y008516
X004984Y004516
X027984Y012516
X002984Y010516
X001984Y007516
X025984Y005516
X028984Y002516
X028984Y014516
X028984Y015516
X026984Y001516
X026984Y002516
X028984Y010516
X029984Y003516
X002984Y001516
X028984Y013516
X028984Y008516
X026984Y004516
X027984Y006516
X002984Y002516
X026984Y005516
X027984Y013516
X028984Y004516
X001984Y008516
X028984Y003516
X029984Y015516
X029984Y005516
X029984Y029516
X002984Y003516
X026984Y007516
X027984Y007516
X003984Y002516
X029984Y011516
X002984Y009516
X027984Y003516
X027984Y002516
X027984Y011516
X027984Y014516
X003984Y001516
X004984Y003516
X029984Y004516
X026984Y003516
X001984Y010516
X027984Y004516
X027984Y001516
X029984Y030516
X028984Y005516
X003984Y003516
X025984Y001516
X027984Y008516
X029984Y002516
X025984Y002516
X003984Y005516
X002984Y004516
X027984Y009516
X028984Y001516
X029984Y012516
X004984Y001516
X029984Y010516
X029984Y013516
X002984Y007516
X001984Y003516
X028984Y012516
X004984Y002516
X001984Y006516
X026984Y008516
X001984Y009516
X003984Y006516
X002984Y006516
X028984Y006516
X025984Y004516
X028984Y011516
X028984Y030516
X001984Y005516
X027984Y010516
X025984Y007516
X028984Y007516
X001984Y001516
X029984Y007516
X001984Y002516
X029984Y009516
X025984Y006516
X003984Y007516
X004984Y005516
X028984Y009516
T00
M30
