G04 MADE WITH FRITZING*
G04 WWW.FRITZING.ORG*
G04 DOUBLE SIDED*
G04 HOLES PLATED*
G04 CONTOUR ON CENTER OF CONTOUR VECTOR*
%ASAXBY*%
%FSLAX23Y23*%
%MOIN*%
%OFA0B0*%
%SFA1.0B1.0*%
%ADD10C,0.075000*%
%ADD11C,0.062992*%
%ADD12C,0.039370*%
%ADD13C,0.074000*%
%ADD14C,0.082000*%
%ADD15C,0.074803*%
%ADD16R,0.062992X0.062992*%
%ADD17R,0.082000X0.082000*%
%ADD18C,0.024000*%
%ADD19R,0.001000X0.001000*%
%LNCOPPER0*%
G90*
G70*
G54D10*
X1298Y752D03*
X1398Y752D03*
X1298Y2552D03*
X1398Y2552D03*
X1298Y1652D03*
X1398Y1652D03*
X1898Y1652D03*
X1998Y1652D03*
X1898Y752D03*
X1998Y752D03*
X1898Y2552D03*
X1998Y2552D03*
X698Y2552D03*
X798Y2552D03*
X698Y752D03*
X798Y752D03*
X698Y1652D03*
X798Y1652D03*
X1998Y2152D03*
X1998Y2052D03*
X1998Y1252D03*
X1998Y1152D03*
X1998Y352D03*
X1998Y252D03*
X798Y2152D03*
X798Y2052D03*
X798Y1252D03*
X798Y1152D03*
X798Y352D03*
X798Y252D03*
X1398Y2152D03*
X1398Y2052D03*
X1398Y1252D03*
X1398Y1152D03*
X1398Y352D03*
X1398Y252D03*
G54D11*
X2996Y2651D03*
X2898Y2651D03*
X2996Y2051D03*
X2898Y2051D03*
X2996Y2351D03*
X2898Y2351D03*
X2898Y2849D03*
X2898Y2751D03*
X2996Y2151D03*
X2898Y2151D03*
X2996Y2451D03*
X2898Y2451D03*
X2996Y2551D03*
X2898Y2551D03*
X2996Y2251D03*
X2898Y2251D03*
X2996Y1951D03*
X2898Y1951D03*
G54D12*
X198Y2152D03*
G54D13*
X198Y2152D03*
X208Y2052D03*
X198Y1952D03*
X198Y2152D03*
X208Y2052D03*
X198Y1952D03*
X198Y2152D03*
X208Y2052D03*
X198Y1952D03*
X198Y1552D03*
X208Y1452D03*
X198Y1352D03*
X198Y1552D03*
X208Y1452D03*
X198Y1352D03*
X198Y1552D03*
X208Y1452D03*
X198Y1352D03*
X198Y1252D03*
X198Y1252D03*
X198Y1252D03*
X198Y1852D03*
X208Y1752D03*
X198Y1652D03*
X198Y1852D03*
X208Y1752D03*
X198Y1652D03*
X198Y1852D03*
X208Y1752D03*
X198Y1652D03*
X198Y2952D03*
X198Y2842D03*
X198Y2952D03*
X198Y2842D03*
X198Y2952D03*
X198Y2842D03*
G54D14*
X998Y2252D03*
X1098Y2252D03*
X1198Y2252D03*
X998Y1352D03*
X1098Y1352D03*
X1198Y1352D03*
X998Y452D03*
X1098Y452D03*
X1198Y452D03*
G54D12*
X798Y2252D03*
X898Y1952D03*
G54D14*
X2198Y2252D03*
X2298Y2252D03*
X2398Y2252D03*
X2198Y452D03*
X2298Y452D03*
X2398Y452D03*
X2198Y1352D03*
X2298Y1352D03*
X2398Y1352D03*
X1598Y2252D03*
X1698Y2252D03*
X1798Y2252D03*
X1598Y1352D03*
X1698Y1352D03*
X1798Y1352D03*
X1598Y452D03*
X1698Y452D03*
X1798Y452D03*
G54D12*
X498Y2752D03*
X698Y2852D03*
X1398Y2252D03*
X1498Y1952D03*
X1998Y2252D03*
X2098Y1952D03*
X798Y1352D03*
X498Y1652D03*
X598Y1852D03*
X1398Y1352D03*
X1998Y1352D03*
X898Y1052D03*
X1498Y1052D03*
X2098Y1052D03*
X698Y1152D03*
X498Y1352D03*
X798Y452D03*
X1398Y452D03*
X1998Y452D03*
X2098Y152D03*
X1498Y152D03*
X898Y152D03*
X798Y952D03*
G54D15*
X2698Y252D03*
X2698Y652D03*
X2598Y252D03*
X2598Y352D03*
X2598Y152D03*
X2698Y152D03*
X2698Y552D03*
X2698Y352D03*
X2698Y752D03*
X2598Y452D03*
X2698Y452D03*
X2698Y852D03*
X2798Y252D03*
X198Y952D03*
X198Y252D03*
X198Y652D03*
X2798Y652D03*
X2798Y1352D03*
X2798Y952D03*
X2798Y152D03*
X198Y552D03*
X198Y152D03*
X198Y852D03*
X2798Y1252D03*
X2798Y552D03*
X2898Y152D03*
X298Y552D03*
X298Y152D03*
X2898Y1252D03*
X2898Y552D03*
X298Y852D03*
X2998Y152D03*
X498Y552D03*
X498Y152D03*
X398Y552D03*
X2598Y552D03*
X2998Y552D03*
X398Y152D03*
X2998Y1252D03*
X2898Y252D03*
X298Y252D03*
X2898Y1352D03*
X2898Y952D03*
X2898Y652D03*
X298Y652D03*
X298Y952D03*
X2998Y252D03*
X398Y252D03*
X498Y252D03*
X2598Y652D03*
X398Y652D03*
X2998Y1352D03*
X2998Y952D03*
X2998Y652D03*
X2798Y352D03*
X198Y1052D03*
X198Y352D03*
X198Y752D03*
X2798Y752D03*
X2798Y1452D03*
X2798Y1052D03*
X2898Y352D03*
X298Y1052D03*
X298Y352D03*
X298Y752D03*
X2898Y752D03*
X2898Y1452D03*
X2898Y1052D03*
X2998Y352D03*
X498Y352D03*
X2598Y752D03*
X398Y352D03*
X398Y752D03*
X2998Y752D03*
X2998Y1052D03*
X2998Y2952D03*
X2998Y1452D03*
X2798Y452D03*
X2798Y1152D03*
X198Y452D03*
X2798Y852D03*
X2898Y452D03*
X298Y452D03*
X2898Y3052D03*
X2898Y1152D03*
X2898Y1552D03*
X2898Y852D03*
X2998Y452D03*
X398Y452D03*
X498Y452D03*
X2998Y3052D03*
X2998Y1152D03*
X2998Y1552D03*
X2998Y852D03*
G54D16*
X2996Y2651D03*
X2996Y2051D03*
X2996Y2351D03*
X2898Y2849D03*
X2996Y2151D03*
X2996Y2451D03*
X2996Y2551D03*
X2996Y2251D03*
X2996Y1951D03*
G54D17*
X998Y2252D03*
X998Y1352D03*
X998Y452D03*
X2198Y2252D03*
X2198Y452D03*
X2198Y1352D03*
X1598Y2252D03*
X1598Y1352D03*
X1598Y452D03*
G54D18*
X1298Y2652D02*
X1298Y2580D01*
D02*
X1198Y2753D02*
X1298Y2652D01*
D02*
X517Y2752D02*
X1198Y2753D01*
D02*
X1899Y2753D02*
X1899Y2580D01*
D02*
X717Y2852D02*
X1798Y2851D01*
D02*
X1798Y2851D02*
X1899Y2753D01*
D02*
X2797Y2952D02*
X2879Y2868D01*
D02*
X230Y2952D02*
X2797Y2952D01*
D02*
X1485Y1965D02*
X1419Y2031D01*
D02*
X298Y2152D02*
X399Y2252D01*
D02*
X499Y2552D02*
X670Y2552D01*
D02*
X399Y2452D02*
X499Y2552D01*
D02*
X399Y2252D02*
X399Y2452D01*
D02*
X230Y2152D02*
X298Y2152D01*
D02*
X699Y1852D02*
X599Y1951D01*
D02*
X398Y1952D02*
X298Y1852D01*
D02*
X599Y1951D02*
X398Y1952D01*
D02*
X298Y1852D02*
X230Y1852D01*
D02*
X699Y1680D02*
X699Y1852D01*
D02*
X1517Y1952D02*
X2079Y1952D01*
D02*
X917Y1952D02*
X1479Y1952D01*
D02*
X499Y1752D02*
X585Y1838D01*
D02*
X498Y1671D02*
X499Y1752D01*
D02*
X2499Y1852D02*
X1198Y1852D01*
D02*
X2598Y2351D02*
X2598Y1951D01*
D02*
X2698Y2451D02*
X2598Y2351D01*
D02*
X2871Y2451D02*
X2698Y2451D01*
D02*
X1099Y1751D02*
X1098Y1384D01*
D02*
X2598Y1951D02*
X2499Y1852D01*
D02*
X1198Y1852D02*
X1099Y1751D01*
D02*
X2598Y1752D02*
X1798Y1751D01*
D02*
X2699Y1852D02*
X2598Y1752D01*
D02*
X2699Y2252D02*
X2699Y1852D01*
D02*
X2798Y2351D02*
X2699Y2252D01*
D02*
X2871Y2351D02*
X2798Y2351D01*
D02*
X1798Y1751D02*
X1698Y1650D01*
D02*
X1698Y1650D02*
X1698Y1384D01*
D02*
X898Y1071D02*
X898Y1933D01*
D02*
X1517Y1052D02*
X2079Y1052D01*
D02*
X917Y1052D02*
X1479Y1052D01*
D02*
X598Y1452D02*
X499Y1551D01*
D02*
X499Y1551D02*
X230Y1552D01*
D02*
X598Y852D02*
X598Y1452D01*
D02*
X678Y772D02*
X598Y852D01*
D02*
X479Y1352D02*
X230Y1352D01*
D02*
X699Y952D02*
X699Y1133D01*
D02*
X799Y852D02*
X699Y952D01*
D02*
X1197Y851D02*
X799Y852D01*
D02*
X1278Y772D02*
X1197Y851D01*
D02*
X817Y452D02*
X966Y452D01*
D02*
X798Y433D02*
X798Y380D01*
D02*
X817Y952D02*
X1798Y950D01*
D02*
X1798Y950D02*
X1898Y851D01*
D02*
X1898Y851D02*
X1898Y780D01*
D02*
X1517Y152D02*
X2079Y152D01*
D02*
X917Y152D02*
X1479Y152D01*
D02*
X2599Y1050D02*
X2198Y654D01*
D02*
X2599Y1553D02*
X2599Y1050D01*
D02*
X2799Y1952D02*
X2799Y1753D01*
D02*
X2799Y1753D02*
X2599Y1553D01*
D02*
X1699Y552D02*
X1699Y484D01*
D02*
X1798Y653D02*
X1699Y552D01*
D02*
X2198Y654D02*
X1798Y653D01*
D02*
X2879Y2032D02*
X2799Y1952D01*
G54D19*
X161Y2989D02*
X234Y2989D01*
X161Y2988D02*
X234Y2988D01*
X161Y2987D02*
X234Y2987D01*
X161Y2986D02*
X234Y2986D01*
X161Y2985D02*
X234Y2985D01*
X161Y2984D02*
X234Y2984D01*
X161Y2983D02*
X234Y2983D01*
X161Y2982D02*
X234Y2982D01*
X161Y2981D02*
X234Y2981D01*
X161Y2980D02*
X234Y2980D01*
X161Y2979D02*
X234Y2979D01*
X161Y2978D02*
X234Y2978D01*
X161Y2977D02*
X234Y2977D01*
X161Y2976D02*
X234Y2976D01*
X161Y2975D02*
X234Y2975D01*
X161Y2974D02*
X234Y2974D01*
X161Y2973D02*
X234Y2973D01*
X161Y2972D02*
X193Y2972D01*
X203Y2972D02*
X234Y2972D01*
X161Y2971D02*
X190Y2971D01*
X206Y2971D02*
X234Y2971D01*
X161Y2970D02*
X188Y2970D01*
X208Y2970D02*
X234Y2970D01*
X161Y2969D02*
X186Y2969D01*
X210Y2969D02*
X234Y2969D01*
X161Y2968D02*
X185Y2968D01*
X211Y2968D02*
X234Y2968D01*
X161Y2967D02*
X184Y2967D01*
X212Y2967D02*
X234Y2967D01*
X161Y2966D02*
X183Y2966D01*
X213Y2966D02*
X234Y2966D01*
X161Y2965D02*
X182Y2965D01*
X214Y2965D02*
X234Y2965D01*
X161Y2964D02*
X181Y2964D01*
X215Y2964D02*
X234Y2964D01*
X161Y2963D02*
X180Y2963D01*
X215Y2963D02*
X234Y2963D01*
X161Y2962D02*
X180Y2962D01*
X216Y2962D02*
X234Y2962D01*
X161Y2961D02*
X179Y2961D01*
X216Y2961D02*
X234Y2961D01*
X161Y2960D02*
X179Y2960D01*
X217Y2960D02*
X234Y2960D01*
X161Y2959D02*
X179Y2959D01*
X217Y2959D02*
X234Y2959D01*
X161Y2958D02*
X178Y2958D01*
X218Y2958D02*
X234Y2958D01*
X161Y2957D02*
X178Y2957D01*
X218Y2957D02*
X234Y2957D01*
X161Y2956D02*
X178Y2956D01*
X218Y2956D02*
X234Y2956D01*
X161Y2955D02*
X178Y2955D01*
X218Y2955D02*
X234Y2955D01*
X161Y2954D02*
X178Y2954D01*
X218Y2954D02*
X234Y2954D01*
X161Y2953D02*
X177Y2953D01*
X218Y2953D02*
X234Y2953D01*
X161Y2952D02*
X177Y2952D01*
X218Y2952D02*
X234Y2952D01*
X161Y2951D02*
X178Y2951D01*
X218Y2951D02*
X234Y2951D01*
X161Y2950D02*
X178Y2950D01*
X218Y2950D02*
X234Y2950D01*
X161Y2949D02*
X178Y2949D01*
X218Y2949D02*
X234Y2949D01*
X161Y2948D02*
X178Y2948D01*
X218Y2948D02*
X234Y2948D01*
X161Y2947D02*
X178Y2947D01*
X218Y2947D02*
X234Y2947D01*
X161Y2946D02*
X179Y2946D01*
X217Y2946D02*
X234Y2946D01*
X161Y2945D02*
X179Y2945D01*
X217Y2945D02*
X234Y2945D01*
X161Y2944D02*
X179Y2944D01*
X216Y2944D02*
X234Y2944D01*
X161Y2943D02*
X180Y2943D01*
X216Y2943D02*
X234Y2943D01*
X161Y2942D02*
X180Y2942D01*
X215Y2942D02*
X234Y2942D01*
X161Y2941D02*
X181Y2941D01*
X215Y2941D02*
X234Y2941D01*
X161Y2940D02*
X182Y2940D01*
X214Y2940D02*
X234Y2940D01*
X161Y2939D02*
X183Y2939D01*
X213Y2939D02*
X234Y2939D01*
X161Y2938D02*
X184Y2938D01*
X212Y2938D02*
X234Y2938D01*
X161Y2937D02*
X185Y2937D01*
X211Y2937D02*
X234Y2937D01*
X161Y2936D02*
X186Y2936D01*
X210Y2936D02*
X234Y2936D01*
X161Y2935D02*
X188Y2935D01*
X208Y2935D02*
X234Y2935D01*
X161Y2934D02*
X190Y2934D01*
X206Y2934D02*
X234Y2934D01*
X161Y2933D02*
X193Y2933D01*
X203Y2933D02*
X234Y2933D01*
X161Y2932D02*
X234Y2932D01*
X161Y2931D02*
X234Y2931D01*
X161Y2930D02*
X234Y2930D01*
X161Y2929D02*
X234Y2929D01*
X161Y2928D02*
X234Y2928D01*
X161Y2927D02*
X234Y2927D01*
X161Y2926D02*
X234Y2926D01*
X161Y2925D02*
X234Y2925D01*
X161Y2924D02*
X234Y2924D01*
X161Y2923D02*
X234Y2923D01*
X161Y2922D02*
X234Y2922D01*
X161Y2921D02*
X234Y2921D01*
X161Y2920D02*
X234Y2920D01*
X161Y2919D02*
X234Y2919D01*
X161Y2918D02*
X234Y2918D01*
X161Y2917D02*
X234Y2917D01*
X161Y2916D02*
X234Y2916D01*
X161Y2189D02*
X234Y2189D01*
X161Y2188D02*
X234Y2188D01*
X161Y2187D02*
X234Y2187D01*
X161Y2186D02*
X234Y2186D01*
X161Y2185D02*
X234Y2185D01*
X161Y2184D02*
X234Y2184D01*
X161Y2183D02*
X234Y2183D01*
X161Y2182D02*
X234Y2182D01*
X161Y2181D02*
X234Y2181D01*
X161Y2180D02*
X234Y2180D01*
X161Y2179D02*
X234Y2179D01*
X161Y2178D02*
X234Y2178D01*
X161Y2177D02*
X234Y2177D01*
X161Y2176D02*
X234Y2176D01*
X161Y2175D02*
X234Y2175D01*
X161Y2174D02*
X234Y2174D01*
X161Y2173D02*
X234Y2173D01*
X161Y2172D02*
X192Y2172D01*
X203Y2172D02*
X234Y2172D01*
X161Y2171D02*
X189Y2171D01*
X206Y2171D02*
X234Y2171D01*
X161Y2170D02*
X188Y2170D01*
X208Y2170D02*
X234Y2170D01*
X161Y2169D02*
X186Y2169D01*
X210Y2169D02*
X234Y2169D01*
X161Y2168D02*
X185Y2168D01*
X211Y2168D02*
X234Y2168D01*
X161Y2167D02*
X183Y2167D01*
X212Y2167D02*
X234Y2167D01*
X161Y2166D02*
X183Y2166D01*
X213Y2166D02*
X234Y2166D01*
X161Y2165D02*
X182Y2165D01*
X214Y2165D02*
X234Y2165D01*
X161Y2164D02*
X181Y2164D01*
X215Y2164D02*
X234Y2164D01*
X161Y2163D02*
X180Y2163D01*
X215Y2163D02*
X234Y2163D01*
X161Y2162D02*
X180Y2162D01*
X216Y2162D02*
X234Y2162D01*
X161Y2161D02*
X179Y2161D01*
X217Y2161D02*
X234Y2161D01*
X161Y2160D02*
X179Y2160D01*
X217Y2160D02*
X234Y2160D01*
X161Y2159D02*
X179Y2159D01*
X217Y2159D02*
X234Y2159D01*
X161Y2158D02*
X178Y2158D01*
X218Y2158D02*
X234Y2158D01*
X161Y2157D02*
X178Y2157D01*
X218Y2157D02*
X234Y2157D01*
X161Y2156D02*
X178Y2156D01*
X218Y2156D02*
X234Y2156D01*
X161Y2155D02*
X178Y2155D01*
X218Y2155D02*
X234Y2155D01*
X161Y2154D02*
X178Y2154D01*
X218Y2154D02*
X234Y2154D01*
X161Y2153D02*
X177Y2153D01*
X218Y2153D02*
X234Y2153D01*
X161Y2152D02*
X177Y2152D01*
X218Y2152D02*
X234Y2152D01*
X161Y2151D02*
X178Y2151D01*
X218Y2151D02*
X234Y2151D01*
X161Y2150D02*
X178Y2150D01*
X218Y2150D02*
X234Y2150D01*
X161Y2149D02*
X178Y2149D01*
X218Y2149D02*
X234Y2149D01*
X161Y2148D02*
X178Y2148D01*
X218Y2148D02*
X234Y2148D01*
X161Y2147D02*
X178Y2147D01*
X217Y2147D02*
X234Y2147D01*
X161Y2146D02*
X179Y2146D01*
X217Y2146D02*
X234Y2146D01*
X161Y2145D02*
X179Y2145D01*
X217Y2145D02*
X234Y2145D01*
X161Y2144D02*
X179Y2144D01*
X216Y2144D02*
X234Y2144D01*
X161Y2143D02*
X180Y2143D01*
X216Y2143D02*
X234Y2143D01*
X161Y2142D02*
X181Y2142D01*
X215Y2142D02*
X234Y2142D01*
X161Y2141D02*
X181Y2141D01*
X215Y2141D02*
X234Y2141D01*
X161Y2140D02*
X182Y2140D01*
X214Y2140D02*
X234Y2140D01*
X161Y2139D02*
X183Y2139D01*
X213Y2139D02*
X234Y2139D01*
X161Y2138D02*
X184Y2138D01*
X212Y2138D02*
X234Y2138D01*
X161Y2137D02*
X185Y2137D01*
X211Y2137D02*
X234Y2137D01*
X161Y2136D02*
X186Y2136D01*
X209Y2136D02*
X234Y2136D01*
X161Y2135D02*
X188Y2135D01*
X208Y2135D02*
X234Y2135D01*
X161Y2134D02*
X190Y2134D01*
X205Y2134D02*
X234Y2134D01*
X161Y2133D02*
X194Y2133D01*
X201Y2133D02*
X234Y2133D01*
X161Y2132D02*
X234Y2132D01*
X161Y2131D02*
X234Y2131D01*
X161Y2130D02*
X234Y2130D01*
X161Y2129D02*
X234Y2129D01*
X161Y2128D02*
X234Y2128D01*
X161Y2127D02*
X234Y2127D01*
X161Y2126D02*
X234Y2126D01*
X161Y2125D02*
X234Y2125D01*
X161Y2124D02*
X234Y2124D01*
X161Y2123D02*
X234Y2123D01*
X161Y2122D02*
X234Y2122D01*
X161Y2121D02*
X234Y2121D01*
X161Y2120D02*
X234Y2120D01*
X161Y2119D02*
X234Y2119D01*
X161Y2118D02*
X234Y2118D01*
X161Y2117D02*
X234Y2117D01*
X162Y2116D02*
X234Y2116D01*
X161Y1889D02*
X234Y1889D01*
X161Y1888D02*
X234Y1888D01*
X161Y1887D02*
X234Y1887D01*
X161Y1886D02*
X234Y1886D01*
X161Y1885D02*
X234Y1885D01*
X161Y1884D02*
X234Y1884D01*
X161Y1883D02*
X234Y1883D01*
X161Y1882D02*
X234Y1882D01*
X161Y1881D02*
X234Y1881D01*
X161Y1880D02*
X234Y1880D01*
X161Y1879D02*
X234Y1879D01*
X161Y1878D02*
X234Y1878D01*
X161Y1877D02*
X234Y1877D01*
X161Y1876D02*
X234Y1876D01*
X161Y1875D02*
X234Y1875D01*
X161Y1874D02*
X234Y1874D01*
X161Y1873D02*
X234Y1873D01*
X161Y1872D02*
X192Y1872D01*
X204Y1872D02*
X234Y1872D01*
X161Y1871D02*
X189Y1871D01*
X206Y1871D02*
X234Y1871D01*
X161Y1870D02*
X187Y1870D01*
X208Y1870D02*
X234Y1870D01*
X161Y1869D02*
X186Y1869D01*
X210Y1869D02*
X234Y1869D01*
X161Y1868D02*
X185Y1868D01*
X211Y1868D02*
X234Y1868D01*
X161Y1867D02*
X183Y1867D01*
X212Y1867D02*
X234Y1867D01*
X161Y1866D02*
X183Y1866D01*
X213Y1866D02*
X234Y1866D01*
X161Y1865D02*
X182Y1865D01*
X214Y1865D02*
X234Y1865D01*
X161Y1864D02*
X181Y1864D01*
X215Y1864D02*
X234Y1864D01*
X161Y1863D02*
X180Y1863D01*
X215Y1863D02*
X234Y1863D01*
X161Y1862D02*
X180Y1862D01*
X216Y1862D02*
X234Y1862D01*
X161Y1861D02*
X179Y1861D01*
X217Y1861D02*
X234Y1861D01*
X161Y1860D02*
X179Y1860D01*
X217Y1860D02*
X234Y1860D01*
X161Y1859D02*
X178Y1859D01*
X217Y1859D02*
X234Y1859D01*
X161Y1858D02*
X178Y1858D01*
X218Y1858D02*
X234Y1858D01*
X161Y1857D02*
X178Y1857D01*
X218Y1857D02*
X234Y1857D01*
X161Y1856D02*
X178Y1856D01*
X218Y1856D02*
X234Y1856D01*
X161Y1855D02*
X178Y1855D01*
X218Y1855D02*
X234Y1855D01*
X161Y1854D02*
X178Y1854D01*
X218Y1854D02*
X234Y1854D01*
X161Y1853D02*
X177Y1853D01*
X218Y1853D02*
X234Y1853D01*
X161Y1852D02*
X177Y1852D01*
X218Y1852D02*
X234Y1852D01*
X161Y1851D02*
X178Y1851D01*
X218Y1851D02*
X234Y1851D01*
X161Y1850D02*
X178Y1850D01*
X218Y1850D02*
X234Y1850D01*
X161Y1849D02*
X178Y1849D01*
X218Y1849D02*
X234Y1849D01*
X161Y1848D02*
X178Y1848D01*
X218Y1848D02*
X234Y1848D01*
X161Y1847D02*
X178Y1847D01*
X217Y1847D02*
X234Y1847D01*
X161Y1846D02*
X179Y1846D01*
X217Y1846D02*
X234Y1846D01*
X161Y1845D02*
X179Y1845D01*
X217Y1845D02*
X234Y1845D01*
X161Y1844D02*
X179Y1844D01*
X216Y1844D02*
X234Y1844D01*
X161Y1843D02*
X180Y1843D01*
X216Y1843D02*
X234Y1843D01*
X161Y1842D02*
X181Y1842D01*
X215Y1842D02*
X234Y1842D01*
X161Y1841D02*
X181Y1841D01*
X215Y1841D02*
X234Y1841D01*
X161Y1840D02*
X182Y1840D01*
X214Y1840D02*
X234Y1840D01*
X161Y1839D02*
X183Y1839D01*
X213Y1839D02*
X234Y1839D01*
X161Y1838D02*
X184Y1838D01*
X212Y1838D02*
X234Y1838D01*
X161Y1837D02*
X185Y1837D01*
X211Y1837D02*
X234Y1837D01*
X161Y1836D02*
X187Y1836D01*
X209Y1836D02*
X234Y1836D01*
X161Y1835D02*
X188Y1835D01*
X207Y1835D02*
X234Y1835D01*
X161Y1834D02*
X191Y1834D01*
X205Y1834D02*
X234Y1834D01*
X161Y1833D02*
X195Y1833D01*
X201Y1833D02*
X234Y1833D01*
X161Y1832D02*
X234Y1832D01*
X161Y1831D02*
X234Y1831D01*
X161Y1830D02*
X234Y1830D01*
X161Y1829D02*
X234Y1829D01*
X161Y1828D02*
X234Y1828D01*
X161Y1827D02*
X234Y1827D01*
X161Y1826D02*
X234Y1826D01*
X161Y1825D02*
X234Y1825D01*
X161Y1824D02*
X234Y1824D01*
X161Y1823D02*
X234Y1823D01*
X161Y1822D02*
X234Y1822D01*
X161Y1821D02*
X234Y1821D01*
X161Y1820D02*
X234Y1820D01*
X161Y1819D02*
X234Y1819D01*
X161Y1818D02*
X234Y1818D01*
X161Y1817D02*
X234Y1817D01*
X162Y1816D02*
X234Y1816D01*
X161Y1589D02*
X234Y1589D01*
X161Y1588D02*
X234Y1588D01*
X161Y1587D02*
X234Y1587D01*
X161Y1586D02*
X234Y1586D01*
X161Y1585D02*
X234Y1585D01*
X161Y1584D02*
X234Y1584D01*
X161Y1583D02*
X234Y1583D01*
X161Y1582D02*
X234Y1582D01*
X161Y1581D02*
X234Y1581D01*
X161Y1580D02*
X234Y1580D01*
X161Y1579D02*
X234Y1579D01*
X161Y1578D02*
X234Y1578D01*
X161Y1577D02*
X234Y1577D01*
X161Y1576D02*
X234Y1576D01*
X161Y1575D02*
X234Y1575D01*
X161Y1574D02*
X234Y1574D01*
X161Y1573D02*
X234Y1573D01*
X161Y1572D02*
X192Y1572D01*
X204Y1572D02*
X234Y1572D01*
X161Y1571D02*
X189Y1571D01*
X207Y1571D02*
X234Y1571D01*
X161Y1570D02*
X187Y1570D01*
X208Y1570D02*
X234Y1570D01*
X161Y1569D02*
X186Y1569D01*
X210Y1569D02*
X234Y1569D01*
X161Y1568D02*
X185Y1568D01*
X211Y1568D02*
X234Y1568D01*
X161Y1567D02*
X183Y1567D01*
X212Y1567D02*
X234Y1567D01*
X161Y1566D02*
X182Y1566D01*
X213Y1566D02*
X234Y1566D01*
X161Y1565D02*
X182Y1565D01*
X214Y1565D02*
X234Y1565D01*
X161Y1564D02*
X181Y1564D01*
X215Y1564D02*
X234Y1564D01*
X161Y1563D02*
X180Y1563D01*
X216Y1563D02*
X234Y1563D01*
X161Y1562D02*
X180Y1562D01*
X216Y1562D02*
X234Y1562D01*
X161Y1561D02*
X179Y1561D01*
X217Y1561D02*
X234Y1561D01*
X161Y1560D02*
X179Y1560D01*
X217Y1560D02*
X234Y1560D01*
X161Y1559D02*
X178Y1559D01*
X217Y1559D02*
X234Y1559D01*
X161Y1558D02*
X178Y1558D01*
X218Y1558D02*
X234Y1558D01*
X161Y1557D02*
X178Y1557D01*
X218Y1557D02*
X234Y1557D01*
X161Y1556D02*
X178Y1556D01*
X218Y1556D02*
X234Y1556D01*
X161Y1555D02*
X178Y1555D01*
X218Y1555D02*
X234Y1555D01*
X161Y1554D02*
X178Y1554D01*
X218Y1554D02*
X234Y1554D01*
X161Y1553D02*
X177Y1553D01*
X218Y1553D02*
X234Y1553D01*
X161Y1552D02*
X177Y1552D01*
X218Y1552D02*
X234Y1552D01*
X161Y1551D02*
X178Y1551D01*
X218Y1551D02*
X234Y1551D01*
X161Y1550D02*
X178Y1550D01*
X218Y1550D02*
X234Y1550D01*
X161Y1549D02*
X178Y1549D01*
X218Y1549D02*
X234Y1549D01*
X161Y1548D02*
X178Y1548D01*
X218Y1548D02*
X234Y1548D01*
X161Y1547D02*
X178Y1547D01*
X217Y1547D02*
X234Y1547D01*
X161Y1546D02*
X179Y1546D01*
X217Y1546D02*
X234Y1546D01*
X161Y1545D02*
X179Y1545D01*
X217Y1545D02*
X234Y1545D01*
X161Y1544D02*
X180Y1544D01*
X216Y1544D02*
X234Y1544D01*
X161Y1543D02*
X180Y1543D01*
X216Y1543D02*
X234Y1543D01*
X161Y1542D02*
X181Y1542D01*
X215Y1542D02*
X234Y1542D01*
X161Y1541D02*
X181Y1541D01*
X214Y1541D02*
X234Y1541D01*
X161Y1540D02*
X182Y1540D01*
X214Y1540D02*
X234Y1540D01*
X161Y1539D02*
X183Y1539D01*
X213Y1539D02*
X234Y1539D01*
X161Y1538D02*
X184Y1538D01*
X212Y1538D02*
X234Y1538D01*
X161Y1537D02*
X185Y1537D01*
X211Y1537D02*
X234Y1537D01*
X161Y1536D02*
X187Y1536D01*
X209Y1536D02*
X234Y1536D01*
X161Y1535D02*
X188Y1535D01*
X207Y1535D02*
X234Y1535D01*
X161Y1534D02*
X191Y1534D01*
X205Y1534D02*
X234Y1534D01*
X161Y1533D02*
X196Y1533D01*
X200Y1533D02*
X234Y1533D01*
X161Y1532D02*
X234Y1532D01*
X161Y1531D02*
X234Y1531D01*
X161Y1530D02*
X234Y1530D01*
X161Y1529D02*
X234Y1529D01*
X161Y1528D02*
X234Y1528D01*
X161Y1527D02*
X234Y1527D01*
X161Y1526D02*
X234Y1526D01*
X161Y1525D02*
X234Y1525D01*
X161Y1524D02*
X234Y1524D01*
X161Y1523D02*
X234Y1523D01*
X161Y1522D02*
X234Y1522D01*
X161Y1521D02*
X234Y1521D01*
X161Y1520D02*
X234Y1520D01*
X161Y1519D02*
X234Y1519D01*
X161Y1518D02*
X234Y1518D01*
X161Y1517D02*
X234Y1517D01*
X162Y1516D02*
X234Y1516D01*
X117Y1289D02*
X205Y1289D01*
X113Y1288D02*
X209Y1288D01*
X110Y1287D02*
X212Y1287D01*
X108Y1286D02*
X214Y1286D01*
X106Y1285D02*
X216Y1285D01*
X104Y1284D02*
X217Y1284D01*
X103Y1283D02*
X219Y1283D01*
X102Y1282D02*
X220Y1282D01*
X100Y1281D02*
X221Y1281D01*
X99Y1280D02*
X222Y1280D01*
X98Y1279D02*
X224Y1279D01*
X97Y1278D02*
X224Y1278D01*
X96Y1277D02*
X225Y1277D01*
X96Y1276D02*
X226Y1276D01*
X95Y1275D02*
X227Y1275D01*
X94Y1274D02*
X192Y1274D01*
X204Y1274D02*
X228Y1274D01*
X93Y1273D02*
X189Y1273D01*
X207Y1273D02*
X228Y1273D01*
X93Y1272D02*
X187Y1272D01*
X209Y1272D02*
X229Y1272D01*
X92Y1271D02*
X185Y1271D01*
X211Y1271D02*
X230Y1271D01*
X92Y1270D02*
X184Y1270D01*
X212Y1270D02*
X230Y1270D01*
X91Y1269D02*
X183Y1269D01*
X213Y1269D02*
X231Y1269D01*
X91Y1268D02*
X181Y1268D01*
X214Y1268D02*
X231Y1268D01*
X90Y1267D02*
X181Y1267D01*
X215Y1267D02*
X232Y1267D01*
X90Y1266D02*
X180Y1266D01*
X216Y1266D02*
X232Y1266D01*
X89Y1265D02*
X179Y1265D01*
X217Y1265D02*
X232Y1265D01*
X89Y1264D02*
X179Y1264D01*
X217Y1264D02*
X233Y1264D01*
X89Y1263D02*
X178Y1263D01*
X218Y1263D02*
X233Y1263D01*
X89Y1262D02*
X177Y1262D01*
X218Y1262D02*
X233Y1262D01*
X88Y1261D02*
X177Y1261D01*
X219Y1261D02*
X233Y1261D01*
X88Y1260D02*
X177Y1260D01*
X219Y1260D02*
X234Y1260D01*
X88Y1259D02*
X176Y1259D01*
X219Y1259D02*
X234Y1259D01*
X88Y1258D02*
X176Y1258D01*
X220Y1258D02*
X234Y1258D01*
X88Y1257D02*
X176Y1257D01*
X220Y1257D02*
X234Y1257D01*
X88Y1256D02*
X176Y1256D01*
X220Y1256D02*
X234Y1256D01*
X88Y1255D02*
X176Y1255D01*
X220Y1255D02*
X234Y1255D01*
X87Y1254D02*
X175Y1254D01*
X220Y1254D02*
X234Y1254D01*
X87Y1253D02*
X175Y1253D01*
X220Y1253D02*
X234Y1253D01*
X87Y1252D02*
X175Y1252D01*
X220Y1252D02*
X234Y1252D01*
X88Y1251D02*
X175Y1251D01*
X220Y1251D02*
X234Y1251D01*
X88Y1250D02*
X176Y1250D01*
X220Y1250D02*
X234Y1250D01*
X88Y1249D02*
X176Y1249D01*
X220Y1249D02*
X234Y1249D01*
X88Y1248D02*
X176Y1248D01*
X220Y1248D02*
X234Y1248D01*
X88Y1247D02*
X176Y1247D01*
X219Y1247D02*
X234Y1247D01*
X88Y1246D02*
X177Y1246D01*
X219Y1246D02*
X234Y1246D01*
X88Y1245D02*
X177Y1245D01*
X219Y1245D02*
X234Y1245D01*
X89Y1244D02*
X177Y1244D01*
X218Y1244D02*
X233Y1244D01*
X89Y1243D02*
X178Y1243D01*
X218Y1243D02*
X233Y1243D01*
X89Y1242D02*
X178Y1242D01*
X217Y1242D02*
X233Y1242D01*
X89Y1241D02*
X179Y1241D01*
X217Y1241D02*
X232Y1241D01*
X90Y1240D02*
X180Y1240D01*
X216Y1240D02*
X232Y1240D01*
X90Y1239D02*
X180Y1239D01*
X215Y1239D02*
X232Y1239D01*
X91Y1238D02*
X181Y1238D01*
X215Y1238D02*
X231Y1238D01*
X91Y1237D02*
X182Y1237D01*
X214Y1237D02*
X231Y1237D01*
X92Y1236D02*
X183Y1236D01*
X212Y1236D02*
X230Y1236D01*
X92Y1235D02*
X185Y1235D01*
X211Y1235D02*
X230Y1235D01*
X93Y1234D02*
X186Y1234D01*
X210Y1234D02*
X229Y1234D01*
X93Y1233D02*
X188Y1233D01*
X208Y1233D02*
X229Y1233D01*
X94Y1232D02*
X191Y1232D01*
X205Y1232D02*
X228Y1232D01*
X95Y1231D02*
X195Y1231D01*
X201Y1231D02*
X227Y1231D01*
X95Y1230D02*
X226Y1230D01*
X96Y1229D02*
X226Y1229D01*
X97Y1228D02*
X225Y1228D01*
X98Y1227D02*
X224Y1227D01*
X99Y1226D02*
X223Y1226D01*
X100Y1225D02*
X222Y1225D01*
X101Y1224D02*
X220Y1224D01*
X103Y1223D02*
X219Y1223D01*
X104Y1222D02*
X218Y1222D01*
X106Y1221D02*
X216Y1221D01*
X107Y1220D02*
X214Y1220D01*
X110Y1219D02*
X212Y1219D01*
X112Y1218D02*
X210Y1218D01*
X115Y1217D02*
X206Y1217D01*
X122Y1216D02*
X200Y1216D01*
D02*
G04 End of Copper0*
M02*